<svg id="sns-icon_sns-icon-yt" xmlns="http://www.w3.org/2000/svg" width="20.035" height="20.036" viewBox="0 0 20.035 20.036">
  <defs>
    <style>
      .cls-1 {
        fill: #fff;
      }

      .cls-2 {
        fill: none;
      }
    </style>
  </defs>
  <path id="パス_2970" data-name="パス 2970" class="cls-1" d="M20.747,13.36a2.166,2.166,0,0,0-1.562-1.534,59.163,59.163,0,0,0-6.879-.326,53.828,53.828,0,0,0-6.879.359,2.181,2.181,0,0,0-1.562,1.5A22.512,22.512,0,0,0,3.5,17.538a22.512,22.512,0,0,0,.366,4.177,2.181,2.181,0,0,0,1.562,1.5,53.828,53.828,0,0,0,6.879.359,53.828,53.828,0,0,0,6.879-.359,2.166,2.166,0,0,0,1.562-1.534,22.322,22.322,0,0,0,.366-4.177A22.228,22.228,0,0,0,20.747,13.36Zm-10.2,6.756V14.959l4.586,2.578Z" transform="translate(-2.289 -7.52)"/>
  <path id="パス_2971" data-name="パス 2971" class="cls-2" d="M0,0H20.035V20.036H0Z" transform="translate(0)"/>
</svg>
